<?xml version="1.0" standalone="no"?>
<!DOCTYPE
  svg
  PUBLIC "-//W3C//DTD SVG 20010904//EN" "http://www.w3.org/TR/2001/REC-SVG-20010904/DTD/svg10.dtd"
>
<svg
  version="1.0"
  xmlns="http://www.w3.org/2000/svg"
  width="225.000000pt"
  height="225.000000pt"
  viewBox="0 0 225.000000 225.000000"
  preserveAspectRatio="xMidYMid meet"
>

  <g
    transform="translate(0.000000,225.000000) scale(0.100000,-0.100000)"
    stroke="none"
  >
    <path d="M827 1844 c-12 -13 -8 -179 5 -192 7 -7 27 -12 45 -12 l33 0 0 -74 0
-75 43 -3 42 -3 5 -71 c4 -61 10 -79 38 -117 17 -25 32 -48 32 -51 0 -3 -56
-6 -124 -6 -97 0 -128 -3 -139 -15 -8 -8 -36 -54 -62 -102 -26 -49 -92 -168
-147 -265 -125 -222 -140 -261 -141 -359 0 -41 3 -80 7 -87 5 -9 164 -12 662
-12 614 0 655 1 662 18 4 9 7 55 6 102 l-1 85 -167 305 c-93 168 -175 311
-184 318 -11 8 -56 12 -139 12 -68 0 -123 3 -123 6 0 3 15 26 33 51 27 38 33
56 37 117 l5 71 43 3 42 3 0 75 c0 73 0 74 26 74 56 0 64 13 64 104 0 57 -4
87 -13 95 -23 19 -37 -9 -37 -76 l0 -63 -255 0 -254 0 -3 72 c-2 56 -7 73 -18
76 -9 1 -19 0 -23 -4z m463 -254 l0 -50 -165 0 -165 0 0 50 0 50 165 0 165 0
0 -50z m-90 -160 c0 -54 -24 -112 -57 -142 -19 -17 -20 -17 -40 5 -35 38 -53
84 -53 137 l0 50 75 0 75 0 0 -50z m-100 -388 c0 -152 8 -185 37 -161 10 9 13
49 13 161 l0 149 133 -3 132 -3 152 -275 c84 -151 153 -278 153 -282 0 -5
-128 -8 -285 -8 l-284 0 -3 83 c-3 74 -5 82 -23 82 -18 0 -20 -8 -23 -82 l-3
-83 -284 0 c-157 0 -285 3 -285 6 0 6 270 499 296 542 14 21 21 22 144 22
l130 0 0 -148z m-2 -529 l-3 -58 -292 -3 -293 -2 0 60 0 60 295 0 296 0 -3
-57z m642 -3 l0 -60 -292 2 -293 3 -3 58 -3 57 296 0 295 0 0 -60z" />
    <path d="M956 1045 c-7 -19 50 -85 74 -85 35 0 32 22 -6 61 -41 42 -58 48 -68
24z" />
    <path d="M1226 1021 c-36 -37 -41 -61 -13 -61 18 0 88 71 84 84 -8 23 -34 15
-71 -23z" />
    <path d="M905 906 c-29 -21 -8 -36 50 -36 54 0 76 13 57 32 -16 16 -87 19
-107 4z" />
    <path d="M1252 909 c-35 -14 -21 -33 29 -40 68 -10 108 21 53 41 -31 12 -51
12 -82 -1z" />
    <path d="M983 787 c-25 -23 -34 -39 -30 -50 10 -26 30 -20 71 22 61 62 24 87
-41 28z" />
    <path d="M1200 802 c0 -26 65 -86 84 -79 26 10 18 34 -21 66 -43 35 -63 39
-63 13z" />
  </g>
</svg>